<?xml version="1.0" encoding="utf-8"?>
<!-- Generator: Adobe Illustrator 28.0.0, SVG Export Plug-In . SVG Version: 6.00 Build 0)  -->
<svg version="1.1" id="katman_1" xmlns="http://www.w3.org/2000/svg" xmlns:xlink="http://www.w3.org/1999/xlink" x="0px" y="0px"
	 viewBox="0 0 325.98 325.98" style="enable-background:new 0 0 325.98 325.98;" xml:space="preserve">
<style type="text/css">
	.st0{fill-rule:evenodd;clip-rule:evenodd;}
	.st1{fill-rule:evenodd;clip-rule:evenodd;fill:none;stroke:#000000;stroke-miterlimit:3.8637;}
	.st2{fill-rule:evenodd;clip-rule:evenodd;fill:#FFFFFF;}
</style>
<g>
	<g>
		<path class="st0" d="M16.13,40.47c96.81-38,195.13-38,294.96,0c3.91,199-28.32,201.67-83.87,249.55l-20.91-17.55
			c75.68-52,85.18-109.63,75.36-211.09c-74.22-30.67-153.45-30.67-237.68,0v51.87L24.9,156.6l45.42-57.81l-20.64,5.68l43.87-31.23
			L80.9,70.92c59.32-31.77,110.5-24.03,153.55,23.23c17.87,6.88,31.72,19.7,41.55,38.45c-47.93-13.05-71.93-14.17-72-3.36
			c-10.5-5.78-21.94-8.45-34.32-8c44,13.32,48.82,36.23,40.77,79.23l-2.32-16c-0.63,20.64-7.86,35.87-21.68,45.68l-3.36-15.23
			c-10.92,38.04-0.25,64.71,32,80l-53.42,19.09C35.09,278.36,7.09,203.56,16.13,40.47z"/>
		<path class="st1" d="M16.13,40.47c96.81-38,195.13-38,294.96,0c3.91,199-28.32,201.67-83.87,249.55l-20.91-17.55
			c75.68-52,85.18-109.63,75.36-211.09c-74.22-30.67-153.45-30.67-237.68,0v51.87L24.9,156.6l45.42-57.81l-20.64,5.68l43.87-31.23
			L80.9,70.92c59.32-31.77,110.5-24.03,153.55,23.23c17.87,6.88,31.72,19.7,41.55,38.45c-47.93-13.05-71.93-14.17-72-3.36
			c-10.5-5.78-21.94-8.45-34.32-8c44,13.32,48.82,36.23,40.77,79.23l-2.32-16c-0.63,20.64-7.86,35.87-21.68,45.68l-3.36-15.23
			c-10.92,38.04-0.25,64.71,32,80l-53.42,19.09C35.09,278.36,7.09,203.56,16.13,40.47z"/>
	</g>
	<g>
		<path class="st2" d="M168.5,78.47l17,14c3.83-1.15,10.5-0.75,18-4l-14-10C183.5,75.8,176.5,75.8,168.5,78.47z"/>
		<path class="st1" d="M168.5,78.47l17,14c3.83-1.15,10.5-0.75,18-4l-14-10C183.5,75.8,176.5,75.8,168.5,78.47z"/>
	</g>
</g>
</svg>
