<svg xmlns="http://www.w3.org/2000/svg" xmlns:xlink="http://www.w3.org/1999/xlink" xmlns:inkscape="http://www.inkscape.org/namespaces/inkscape" version="1.1" width="595" height="841" viewBox="0 0 595 841">
<path transform="matrix(1,0,0,-1,-1692,2425)" d="M1844.1317 2216C1940.9367 2253.9996 2039.2606 2253.9996 2139.0946 2216 2143 2017 2110.7764 2014.3307 2055.2264 1966.4526L2034.3209 1984C2110 2036 2119.497 2093.627 2109.679 2195.0946 2035.4627 2225.7608 1956.2338 2225.7608 1872 2195.0946V2143.2264L1852.9053 2099.8682 1898.3209 2157.679 1877.679 2152 1921.5473 2183.2264 1908.9053 2185.5474C1968.2207 2217.3194 2019.4047 2209.5772 2062.4527 2162.3209 2080.319 2155.4376 2094.1688 2142.6195 2104 2123.8682 2056.073 2136.9219 2032.0722 2138.0413 2032 2127.2264 2021.4973 2133.0079 2010.0567 2135.6744 1997.679 2135.2264 2041.68 2121.9063 2046.5 2099 2038.4526 2056L2036.1317 2072C2035.4976 2051.355 2028.271 2036.1282 2014.4526 2026.3209L2011.0946 2041.5473C2000.1781 2003.5061 2010.8451 1976.8386 2043.0946 1961.5473L1989.679 1942.4526C1863.0897 1978.1043 1835.0946 2052.9053 1844.1317 2216Z" fill="#231f20" fill-rule="evenodd"/>
<path transform="matrix(1,0,0,-1,-1692,2425)" stroke-width="1" stroke-linecap="butt" stroke-miterlimit="3.8637" stroke-linejoin="miter" fill="none" stroke="#231f20" d="M1844.1317 2216C1940.9367 2253.9996 2039.2606 2253.9996 2139.0946 2216 2143 2017 2110.7764 2014.3307 2055.2264 1966.4526L2034.3209 1984C2110 2036 2119.497 2093.627 2109.679 2195.0946 2035.4627 2225.7608 1956.2338 2225.7608 1872 2195.0946V2143.2264L1852.9053 2099.8682 1898.3209 2157.679 1877.679 2152 1921.5473 2183.2264 1908.9053 2185.5474C1968.2207 2217.3194 2019.4047 2209.5772 2062.4527 2162.3209 2080.319 2155.4376 2094.1688 2142.6195 2104 2123.8682 2056.073 2136.9219 2032.0722 2138.0413 2032 2127.2264 2021.4973 2133.0079 2010.0567 2135.6744 1997.679 2135.2264 2041.68 2121.9063 2046.5 2099 2038.4526 2056L2036.1317 2072C2035.4976 2051.355 2028.271 2036.1282 2014.4526 2026.3209L2011.0946 2041.5473C2000.1781 2003.5061 2010.8451 1976.8386 2043.0946 1961.5473L1989.679 1942.4526C1863.0897 1978.1043 1835.0946 2052.9053 1844.1317 2216Z"/>
<path transform="matrix(1,0,0,-1,-1692,2425)" d="M1996.5 2178 2013.5 2164C2017.3253 2165.1463 2024 2164.75 2031.5 2168L2017.5 2178C2011.5053 2180.6666 2004.5051 2180.6666 1996.5 2178Z" fill="#ffffff" fill-rule="evenodd"/>
<path transform="matrix(1,0,0,-1,-1692,2425)" stroke-width="1" stroke-linecap="butt" stroke-miterlimit="3.8637" stroke-linejoin="miter" fill="none" stroke="#231f20" d="M1996.5 2178 2013.5 2164C2017.3253 2165.1463 2024 2164.75 2031.5 2168L2017.5 2178C2011.5053 2180.6666 2004.5051 2180.6666 1996.5 2178Z"/>
</svg>
